<svg version="1" xmlns="http://www.w3.org/2000/svg" width="933.333" height="933.333" viewBox="0 0 700.000000 700.000000"><path d="M73.5.7C43.9 6.4 23.7 20.3 10.6 44c-4.3 8-7.4 17.1-9 27-.9 5.7-1.1 71.8-1 281C.7 652.2.3 630.7 6.5 646.6c3.2 8.1 11.6 21.1 17.7 27.3 12.1 12.4 28.3 20.9 46.1 24.2 8.8 1.6 549.2 1.5 559.1-.1 21.7-3.5 40.1-14.9 54.4-33.6 6.2-8.2 12.9-24.1 14.8-35.6.4-2.3.8-127.4.9-277.8.1-222.3-.2-274.9-1.2-281-5.9-33.2-28.9-58-62.8-67.7C629.9.7 610.8.6 352.5.4 200.1.4 74.6.5 73.5.7zm124.4 61.9c4.9 3.5 4.9 3.7 4.9 70.9.1 34.6.1 63.6.1 64.2.1 1 4.5 1.3 18.5 1.3h18.5v-64.9c0-69.8 0-69 5.2-71.7 5.8-3 11.7-.8 14 5.3.5 1.4.9 29.1.9 66.9V199h38.6l-.1-62.3c0-34.2.2-63.9.4-66 .7-7.8 9.8-12.4 15.9-8.1 5.1 3.5 4.9.4 4.7 98.4-.2 99 0 94.4-5.5 103.6-5.8 9.9-17.1 17.5-28.5 19.1-2.2.3-4.1.6-4.2.7-.2.2-.3 71.5-.3 158.7 0 167.6.1 162-4.4 170.8-7.2 13.9-27.1 18.9-41.1 10.3-5.4-3.3-8.3-6.6-11.4-13.2l-2.6-5.5-.3-160.8L221 284h-3c-3.8 0-3.5.1-9.6-2-10.2-3.5-17.5-9.7-22.1-18.5-5.3-10.1-5.2-9.3-5.3-104.8 0-96.3-.2-93.9 5.3-96.5 3.3-1.6 9-1.4 11.6.4zm276 .2c8.3 2.1 14.1 5.5 20.4 11.7 6.3 6.3 11.1 15 12.8 23.5 1.9 8.7 2 498.4.2 506.4-5.8 25.3-38.6 31.4-53.6 9.9-5.5-7.8-5.5-7-5.5-112.3 0-65.2-.3-97.4-1-97.9-.5-.3-7.8-.6-16.1-.5l-15.1.1.2-152.1.3-152.1 2.2-6.3c5.8-16.3 20.1-29.2 34.2-30.9 2.5-.3 4.8-.7 5.1-1 .9-.8 10.5.1 15.9 1.5z"/></svg>