<?xml version="1.0" encoding="utf-8"?>
<!-- Generator: Adobe Illustrator 16.0.0, SVG Export Plug-In . SVG Version: 6.00 Build 0)  -->
<!DOCTYPE svg PUBLIC "-//W3C//DTD SVG 1.1//EN" "http://www.w3.org/Graphics/SVG/1.1/DTD/svg11.dtd">
<svg version="1.1" id="Layer_1" xmlns="http://www.w3.org/2000/svg" xmlns:xlink="http://www.w3.org/1999/xlink" x="0px" y="0px"
	 width="800px" height="600px" viewBox="0 0 800 600" enable-background="new 0 0 800 600" xml:space="preserve">
<rect fill="#606163" width="800" height="600"/>
<rect y="75.393" fill="none" width="800" height="421.792"/>
<g enable-background="new    ">
	<path fill="#E7E8E9" d="M190.307,81.513v114.579h-14.79V81.513H190.307z"/>
	<path fill="#E7E8E9" d="M312.707,145.772c-0.85-15.979-1.87-35.189-1.7-49.47h-0.51c-3.91,13.43-8.67,27.71-14.45,43.52
		l-20.229,55.59h-11.22l-18.53-54.569c-5.44-16.15-10.03-30.94-13.26-44.54h-0.34c-0.34,14.28-1.19,33.49-2.21,50.659l-3.06,49.13
		h-14.11l7.99-114.579h18.87l19.55,55.42c4.76,14.109,8.67,26.689,11.56,38.59h0.51c2.89-11.561,6.97-24.141,12.07-38.59l20.4-55.42
		h18.87l7.14,114.579h-14.45L312.707,145.772z"/>
	<path fill="#E7E8E9" d="M369.656,160.052l-11.9,36.04h-15.3l38.93-114.579h17.85l39.1,114.579h-15.81l-12.24-36.04H369.656z
		 M407.225,148.492l-11.219-32.979c-2.55-7.479-4.25-14.28-5.95-20.91h-0.34c-1.7,6.8-3.57,13.771-5.78,20.74l-11.22,33.149H407.225
		z"/>
	<path fill="#E7E8E9" d="M539.824,190.992c-6.629,2.38-19.719,6.29-35.189,6.29c-17.34,0-31.619-4.42-42.84-15.13
		c-9.859-9.521-15.979-24.82-15.979-42.67c0.17-34.17,23.629-59.159,62.049-59.159c13.26,0,23.629,2.89,28.56,5.27l-3.569,12.07
		c-6.121-2.72-13.771-4.931-25.33-4.931c-27.88,0-46.07,17.34-46.07,46.07c0,29.069,17.51,46.239,44.2,46.239
		c9.69,0,16.319-1.36,19.72-3.06v-34.17h-23.29v-11.9h37.739V190.992z"/>
	<path fill="#E7E8E9" d="M621.765,142.372h-44.54v41.31h49.64v12.41h-64.429V81.513h61.879v12.41h-47.09v36.21h44.54V142.372z"/>
</g>
<g enable-background="new    ">
	<path fill="#E7E8E9" d="M256.182,346.092V231.513h16.15l36.719,57.97c8.5,13.43,15.13,25.5,20.57,37.229l0.34-0.17
		c-1.36-15.3-1.7-29.239-1.7-47.09v-47.939h13.94v114.579h-14.96l-36.379-58.14c-7.99-12.75-15.64-25.84-21.42-38.249l-0.51,0.17
		c0.85,14.449,1.19,28.22,1.19,47.26v48.959H256.182z"/>
	<path fill="#E7E8E9" d="M465.959,287.612c0,39.439-23.97,60.35-53.209,60.35c-30.26,0-51.51-23.46-51.51-58.14
		c0-36.38,22.609-60.18,53.209-60.18C445.729,229.643,465.959,253.613,465.959,287.612z M377.05,289.482
		c0,24.479,13.26,46.409,36.55,46.409c23.459,0,36.72-21.59,36.72-47.6c0-22.779-11.899-46.579-36.55-46.579
		C389.29,241.713,377.05,264.322,377.05,289.482z"/>
	<path fill="#E7E8E9" d="M502.68,244.093h-34.85v-12.58h84.829v12.58h-35.02v101.999h-14.96V244.093z"/>
</g>
<g enable-background="new    ">
	<path fill="#E7E8E9" d="M39.52,460.052l-11.9,36.04h-15.3l38.93-114.579h17.85l39.1,114.579h-15.81l-12.24-36.04H39.52z
		 M77.089,448.492l-11.22-32.979c-2.55-7.479-4.25-14.28-5.95-20.91h-0.34c-1.7,6.8-3.57,13.771-5.78,20.74l-11.22,33.149H77.089z"
		/>
	<path fill="#E7E8E9" d="M141.18,496.092l-37.399-114.579h15.979l17.85,56.439c4.93,15.47,9.18,29.41,12.24,42.84h0.34
		c3.23-13.26,7.99-27.71,13.09-42.67l19.38-56.609h15.81L157.5,496.092H141.18z"/>
	<path fill="#E7E8E9" d="M219.722,460.052l-11.9,36.04h-15.3l38.93-114.579h17.85l39.1,114.579h-15.81l-12.24-36.04H219.722z
		 M257.291,448.492l-11.22-32.979c-2.55-7.479-4.25-14.28-5.95-20.91h-0.34c-1.7,6.8-3.57,13.771-5.78,20.74l-11.22,33.149H257.291z
		"/>
	<path fill="#E7E8E9" d="M320.021,381.513v114.579h-14.79V381.513H320.021z"/>
	<path fill="#E7E8E9" d="M345.862,381.513h14.79v102.169h48.96v12.41h-63.75V381.513z"/>
	<path fill="#E7E8E9" d="M444.629,460.052l-11.9,36.04H417.43l38.93-114.579h17.85l39.1,114.579h-15.811l-12.24-36.04H444.629z
		 M482.199,448.492l-11.221-32.979c-2.551-7.479-4.25-14.28-5.949-20.91h-0.34c-1.701,6.8-3.57,13.771-5.781,20.74l-11.219,33.149
		H482.199z"/>
	<path fill="#E7E8E9" d="M530.139,383.043c6.461-1.36,16.66-2.38,27.029-2.38c14.791,0,24.311,2.55,31.451,8.33
		c5.949,4.42,9.52,11.22,9.52,20.229c0,11.05-7.311,20.74-19.381,25.16v0.34c10.881,2.72,23.631,11.729,23.631,28.729
		c0,9.86-3.91,17.34-9.689,22.95c-7.99,7.31-20.91,10.709-39.611,10.709c-10.199,0-18.02-0.68-22.949-1.359V383.043z
		 M544.93,429.963h13.43c15.639,0,24.818-8.16,24.818-19.21c0-13.43-10.199-18.7-25.158-18.7c-6.801,0-10.711,0.51-13.09,1.021
		V429.963z M544.93,484.872c2.889,0.51,7.139,0.68,12.408,0.68c15.301,0,29.41-5.609,29.41-22.27c0-15.64-13.43-22.1-29.58-22.1
		H544.93V484.872z"/>
	<path fill="#E7E8E9" d="M622.277,381.513h14.791v102.169h48.959v12.41h-63.75V381.513z"/>
	<path fill="#E7E8E9" d="M761.844,442.372h-44.539v41.31h49.641v12.41h-64.43V381.513h61.879v12.41h-47.09v36.21h44.539V442.372z"/>
</g>
</svg>
